HIERARCHY
ROOT Hips
{
	OFFSET 0.00000 0.00000 0.00000
	CHANNELS 6 Xposition Yposition Zposition Zrotation Yrotation Xrotation 
	JOINT LHipJoint
	{
		OFFSET 0 0 0
		CHANNELS 3 Zrotation Yrotation Xrotation
		JOINT LeftUpLeg
		{
			OFFSET 1.77779 -1.88989 0.48267
			CHANNELS 3 Zrotation Yrotation Xrotation
			JOINT LeftLeg
			{
				OFFSET 2.53442 -6.96327 0.00000
				CHANNELS 3 Zrotation Yrotation Xrotation
				JOINT LeftFoot
				{
					OFFSET 2.71068 -7.44755 0.00000
					CHANNELS 3 Zrotation Yrotation Xrotation
					JOINT LeftToeBase
					{
						OFFSET 0.17992 -0.49431 2.22524
						CHANNELS 3 Zrotation Yrotation Xrotation
						End Site
						{
							OFFSET 0.00000 -0.00000 1.14687
						}
					}
				}
			}
		}
	}
	JOINT RHipJoint
	{
		OFFSET 0 0 0
		CHANNELS 3 Zrotation Yrotation Xrotation
		JOINT RightUpLeg
		{
			OFFSET -1.58469 -1.88989 0.48267
			CHANNELS 3 Zrotation Yrotation Xrotation
			JOINT RightLeg
			{
				OFFSET -2.60386 -7.15404 0.00000
				CHANNELS 3 Zrotation Yrotation Xrotation
				JOINT RightFoot
				{
					OFFSET -2.73334 -7.50979 0.00000
					CHANNELS 3 Zrotation Yrotation Xrotation
					JOINT RightToeBase
					{
						OFFSET -0.25618 -0.70384 2.21822
						CHANNELS 3 Zrotation Yrotation Xrotation
						End Site
						{
							OFFSET -0.00000 -0.00000 1.16381
						}
					}
				}
			}
		}
	}
	JOINT LowerBack
	{
		OFFSET 0 0 0
		CHANNELS 3 Zrotation Yrotation Xrotation
		JOINT Spine
		{
			OFFSET 0.03410 2.01612 -0.22230
			CHANNELS 3 Zrotation Yrotation Xrotation
			JOINT Spine1
			{
				OFFSET 0.03465 2.03012 0.00937
				CHANNELS 3 Zrotation Yrotation Xrotation
				JOINT Neck
				{
					OFFSET 0 0 0
					CHANNELS 3 Zrotation Yrotation Xrotation
					JOINT Neck1
					{
						OFFSET -0.00219 1.70459 0.20857
						CHANNELS 3 Zrotation Yrotation Xrotation
						JOINT Head
						{
							OFFSET 0.02518 1.72339 -0.22179
							CHANNELS 3 Zrotation Yrotation Xrotation
							End Site
							{
								OFFSET 0.00282 1.74122 -0.09823
							}
						}
					}
				}
				JOINT LeftShoulder
				{
					OFFSET 0 0 0
					CHANNELS 3 Zrotation Yrotation Xrotation
					JOINT LeftArm
					{
						OFFSET 3.36358 1.00547 -0.37661
						CHANNELS 3 Zrotation Yrotation Xrotation
						JOINT LeftForeArm
						{
							OFFSET 5.06507 -0.00000 0.00000
							CHANNELS 3 Zrotation Yrotation Xrotation
							JOINT LeftHand
							{
								OFFSET 3.60196 -0.00000 0.00000
								CHANNELS 3 Zrotation Yrotation Xrotation
								JOINT LeftFingerBase
								{
									OFFSET 0 0 0
									CHANNELS 3 Zrotation Yrotation Xrotation
									JOINT LeftHandIndex1
									{
										OFFSET 0.45035 -0.00000 0.00000
										CHANNELS 3 Zrotation Yrotation Xrotation
										End Site
										{
											OFFSET 0.36308 -0.00000 0.00000
										}
									}
								}
								JOINT LThumb
								{
									OFFSET 0 0 0
									CHANNELS 3 Zrotation Yrotation Xrotation
									End Site
									{
										OFFSET 0.36862 -0.00000 0.36862
									}
								}
							}
						}
					}
				}
				JOINT RightShoulder
				{
					OFFSET 0 0 0
					CHANNELS 3 Zrotation Yrotation Xrotation
					JOINT RightArm
					{
						OFFSET -3.50159 0.80383 -0.71526
						CHANNELS 3 Zrotation Yrotation Xrotation
						JOINT RightForeArm
						{
							OFFSET -5.36394 -0.00000 0.00000
							CHANNELS 3 Zrotation Yrotation Xrotation
							JOINT RightHand
							{
								OFFSET -3.58035 -0.00000 0.00000
								CHANNELS 3 Zrotation Yrotation Xrotation
								JOINT RightFingerBase
								{
									OFFSET 0 0 0
									CHANNELS 3 Zrotation Yrotation Xrotation
									JOINT RightHandIndex1
									{
										OFFSET -0.66375 -0.00000 0.00000
										CHANNELS 3 Zrotation Yrotation Xrotation
										End Site
										{
											OFFSET -0.53513 -0.00000 0.00000
										}
									}
								}
								JOINT RThumb
								{
									OFFSET 0 0 0
									CHANNELS 3 Zrotation Yrotation Xrotation
									End Site
									{
										OFFSET -0.54330 -0.00000 0.54330
									}
								}
							}
						}
					}
				}
			}
		}
	}
}
MOTION
Frames: 11
Frame Time: .0083333
-0.43 18.1925 -35.8888 0 0 0 0 0 0 -21 0 0 0 0 0 0 0 0 0 0 0 0 0 0 21 0 0 0 0 0 0 0 0 0 0 0 0 0 0 0 0 0 0 0 0 0 0 -16 0 0 21 0 0 11 0 0 0 -8 0 0 0 0 0 0 0 0 0 0 0 0 0 0 0 0 0 0 0 0 8 0 0 0 0 0 0 0 0 0 0 0 0 0 0 0 0 0
-0.4300 18.1925 -35.8888 1.6474 -6.2839 7.9250 0.0000 0.0000 0.0000 -30.4809 1.2825 16.3723 3.1692 10.9641 32.1588 2.2987 -12.3944 35.2187 0.4914 -4.4945 -12.4721 0.0000 0.0000 0.0000 18.1256 16.6982 -38.1689 -1.9478 -8.7564 25.0362 -0.0010 -1.4773 -2.2215 -1.1853 6.9093 -19.4468 -3.2894 -0.9075 13.7405 1.3592 -1.6374 -1.1526 3.6682 -0.5939 -8.8411 -1.8711 -1.5193 -18.2886 0.8344 -1.7164 13.1832 0.3827 -0.8420 7.0535 0.0000 0.0000 0.0000 -84.0777 9.9048 44.4350 141.8233 -46.9518 -102.9054 -0.0000 0.0000 -37.4124 24.8817 -0.4985 -0.2312 -7.1250 0.0000 -0.0000 -1.3207 29.4290 0.5015 0.0000 0.0000 0.0000 84.5293 -36.9817 36.1924 -118.6152 56.6678 -84.5043 0.0000 -0.0000 -13.4593 -27.8972 37.6416 -17.9171 7.1250 -0.0000 -0.0000 3.3514 11.0684 3.9385
-0.4261 18.1697 -35.3491 1.8515 -5.6428 7.7091 0.0000 0.0000 0.0000 -30.5176 0.5403 15.8800 3.9170 12.0491 35.9060 2.0959 -12.9342 34.4976 0.5428 -4.7203 -13.1124 0.0000 0.0000 0.0000 18.3691 15.6941 -38.0669 -1.7487 -8.3217 23.6957 -0.0004 -1.9276 -2.7850 -1.4299 7.5610 -21.3884 -3.5828 -1.4965 13.7136 1.8150 -2.4331 -1.4089 4.4979 -0.9418 -9.0059 -2.9292 -1.2901 -16.2592 0.9263 -1.2125 12.1762 0.6495 -0.6464 6.3887 -0.0000 0.0000 0.0000 -85.2630 11.2208 43.4240 141.0228 -47.4521 -102.3180 -0.0000 0.0000 -37.5854 25.1095 -0.3296 -0.1545 -7.1250 0.0000 -0.0000 -1.1437 29.6148 0.4292 -0.0000 0.0000 0.0000 83.1559 -36.9664 36.9492 -118.0735 56.8018 -84.0513 0.0000 -0.0000 -13.4804 -27.9529 37.5408 -17.9182 7.1250 -0.0000 -0.0000 3.2998 10.9818 3.8737
-0.4194 18.1470 -34.8060 1.7677 -4.7502 7.5176 0.0000 0.0000 0.0000 -30.1119 -0.3122 15.1221 4.8190 13.1770 40.0346 2.4049 -12.5247 35.8795 0.1930 -2.8295 -7.8044 0.0000 0.0000 0.0000 18.8824 14.6995 -38.0846 -1.6844 -8.1751 23.2473 0.0139 -2.8566 -3.1100 -1.5205 7.7863 -22.0669 -2.5708 -1.7051 13.4593 1.3877 -2.5670 -0.7768 3.4554 -1.0971 -8.2196 -2.2534 -1.6522 -17.8814 0.9277 -1.8187 12.4063 0.4679 -0.9017 6.7385 -0.0000 0.0000 0.0000 -84.3430 10.1873 43.9802 139.5998 -48.3052 -101.2625 -0.0000 0.0000 -37.9169 25.9337 -0.6633 -0.3225 -7.1250 0.0000 -0.0000 -0.4957 29.2420 0.1904 -0.0000 0.0000 0.0000 85.1366 -35.1800 35.0390 -116.9936 57.0592 -83.1463 0.0000 -0.0000 -13.7894 -25.7561 37.3904 -16.3295 7.1250 -0.0000 -0.0000 4.4145 10.2321 5.1424
-0.4167 18.1125 -34.2663 1.6126 -4.5312 7.1574 0.0000 0.0000 0.0000 -29.6997 -0.3826 14.0963 5.7639 14.1956 44.0267 2.6989 -12.3778 37.3028 0.1359 -2.3762 -6.5466 0.0000 0.0000 0.0000 19.6367 14.0035 -37.6442 -1.6467 -8.0879 22.9813 0.0345 -3.5855 -2.8103 -1.4773 7.6799 -21.7459 -1.9560 -1.3738 13.9002 1.0163 -2.0605 -0.1856 2.6106 -0.8985 -7.9030 -1.2690 -2.1091 -20.5251 0.7286 -2.6217 13.2566 0.1268 -1.2453 7.4529 0.0000 0.0000 0.0000 -83.3703 8.9982 45.1338 137.9300 -49.2496 -100.0065 -0.0000 0.0000 -38.0013 26.5225 -0.7543 -0.3765 -7.1250 0.0000 -0.0000 -0.0352 29.1367 0.0136 0.0000 0.0000 0.0000 87.4791 -33.4547 32.5508 -116.1437 57.2529 -82.4323 0.0000 -0.0000 -13.7532 -24.1801 37.5287 -15.2970 7.1250 -0.0000 -0.0000 5.2684 9.9672 6.1244
-0.4137 18.0629 -33.7325 1.1952 -4.8008 6.8208 0.0000 0.0000 0.0000 -29.0252 -0.0737 12.7092 6.8297 15.1868 48.2273 3.3526 -11.1077 39.7050 0.0241 -1.0023 -2.7553 0.0000 0.0000 0.0000 20.7711 13.5020 -37.2223 -1.6960 -8.2018 23.3286 0.0521 -4.0912 -2.1487 -1.3705 7.4089 -20.9324 -1.6060 -1.1155 14.2866 1.0998 -1.6577 0.0467 2.4276 -0.7173 -7.9006 -0.9455 -2.1422 -21.3806 0.5813 -2.7236 13.2765 0.0051 -1.2881 7.5951 -0.0000 0.0000 0.0000 -83.3841 8.8363 45.3964 136.2252 -50.1539 -98.7061 -0.0000 0.0000 -38.0399 26.3901 -0.0090 -0.0045 -7.1250 0.0000 -0.0000 -0.1379 29.9697 0.0506 -0.0000 0.0000 0.0000 88.2048 -32.4450 31.5566 -115.5537 57.3828 -81.9357 0.0000 -0.0000 -13.3057 -24.3660 37.5647 -15.4357 7.1250 -0.0000 -0.0000 5.1781 10.0501 6.0248
-0.4087 17.9928 -33.2061 0.7160 -5.2794 6.5063 0.0000 0.0000 0.0000 -28.2906 0.3064 11.1420 8.0155 16.1307 52.6186 3.9173 -9.3870 41.3720 0.0067 -0.5281 -1.4512 0.0000 0.0000 0.0000 22.1253 12.7279 -37.0906 -1.8507 -8.5478 24.3909 0.0416 -3.6147 -1.3116 -1.4387 7.5832 -21.4552 -1.5142 -1.2323 14.2312 1.6043 -1.7564 -0.1370 2.9384 -0.7540 -8.0496 -1.8129 -1.8455 -19.1535 0.7267 -2.1302 12.2216 0.2884 -1.0439 6.8868 -0.0000 -0.0000 0.0000 -84.6196 10.1962 44.2502 134.4822 -51.0197 -97.3594 -0.0000 0.0000 -37.7940 26.1333 0.1706 0.0837 -7.1250 0.0000 -0.0000 -0.3411 30.1697 0.1235 -0.0000 -0.0000 0.0000 86.9955 -32.3170 32.4664 -114.7932 57.5449 -81.2945 0.0000 -0.0000 -12.9947 -24.8071 37.6182 -15.7556 7.1250 -0.0000 -0.0000 4.9581 10.2160 5.7786
-0.4083 17.9014 -32.6896 0.2282 -5.9721 6.0406 0.0000 0.0000 0.0000 -27.4202 0.9927 9.4856 9.3231 17.0112 57.2010 4.1725 -7.9789 41.8325 0.0186 -0.8815 -2.4228 0.0000 0.0000 0.0000 23.3709 12.2382 -36.9356 -2.1271 -9.1260 26.1904 0.0172 -2.3599 -0.4410 -1.2598 7.1151 -20.0568 -1.1497 -1.0306 14.2358 1.6272 -1.4285 0.2710 2.6788 -0.6195 -7.6398 -1.9052 -1.8893 -19.0264 1.0307 -2.2165 12.0288 0.3942 -1.0620 6.8088 -0.0000 0.0000 0.0000 -84.7151 10.0794 43.7053 132.2050 -52.0665 -95.5761 -0.0000 0.0000 -37.5538 26.1799 0.3192 0.1569 -7.1250 0.0000 -0.0000 -0.3051 30.3354 0.1092 -0.0000 0.0000 0.0000 87.3866 -30.8534 32.3115 -113.6169 57.7839 -80.3007 0.0000 -0.0000 -12.8996 -24.9795 37.7710 -15.9261 7.1250 -0.0000 -0.0000 4.8993 10.4138 5.7232
-0.4068 17.7933 -32.1719 -0.1405 -6.4604 5.4852 0.0000 0.0000 0.0000 -26.4789 1.6504 7.7041 10.7253 17.7980 61.8861 4.1642 -6.9015 41.3083 0.0340 -1.1905 -3.2731 0.0000 0.0000 0.0000 24.2682 11.8465 -36.7929 -2.5307 -9.8936 28.6328 -0.0013 -0.1374 0.6545 -0.5154 4.6015 -12.7752 -0.2378 -0.7937 14.3209 1.0546 -1.0150 0.9950 1.4568 -0.4716 -6.9583 -1.0789 -2.0455 -20.4820 1.3962 -2.6999 12.5481 0.3109 -1.2101 7.2200 -0.0000 -0.0000 0.0000 -83.6729 9.1201 43.7752 129.7406 -53.0996 -93.6186 -0.0000 0.0000 -37.6245 26.5039 0.2763 0.1378 -7.1250 0.0000 -0.0000 -0.0486 30.2884 0.0175 -0.0000 -0.0000 0.0000 89.2083 -28.6357 31.5404 -112.1184 58.0683 -79.0309 0.0000 -0.0000 -12.6371 -25.5045 38.0217 -16.3758 7.1250 -0.0000 -0.0000 4.6783 10.8026 5.4887
-0.4017 17.6860 -31.6469 -0.5501 -6.7606 5.0740 0.0000 0.0000 0.0000 -25.3582 2.2052 5.6111 12.1941 18.4715 66.6027 4.3636 -6.4742 42.0154 0.0022 0.3003 0.8252 0.0000 0.0000 0.0000 24.9420 11.6654 -36.7948 -3.0682 -10.8047 31.6239 0.0285 2.9955 1.0403 -0.0261 1.0433 -2.8679 -0.1173 -0.5740 15.6124 1.4210 -0.6632 0.4784 1.7386 -0.2867 -8.2433 -1.5594 -2.1604 -20.3166 1.4182 -2.7372 13.3312 0.3889 -1.2478 7.4591 0.0000 0.0000 0.0000 -84.4854 10.3125 43.8440 127.3482 -54.0106 -91.6939 -0.0000 0.0000 -37.0832 26.3936 -0.1883 -0.0935 -7.1250 0.0000 -0.0000 -0.1351 29.7695 0.0502 0.0000 0.0000 0.0000 88.9219 -28.5569 31.4610 -111.4045 58.1961 -78.4245 0.0000 -0.0000 -12.5161 -25.9550 38.1543 -16.7367 7.1250 -0.0000 -0.0000 4.4727 11.0552 5.2619
-0.4046 17.5801 -31.1202 -0.8423 -7.3502 4.6561 0.0000 0.0000 0.0000 -24.3383 3.0086 3.5805 13.6596 19.0075 71.1621 4.4916 -6.5840 42.6251 0.0742 1.7576 4.8363 0.0000 0.0000 0.0000 25.3130 12.1127 -36.5189 -3.7530 -11.8242 35.1129 0.0880 5.5603 0.0846 -0.1250 -2.2793 6.2782 -0.3571 -0.5038 16.2902 1.8968 -0.5617 0.0278 2.3859 -0.2063 -9.1128 -2.4823 -2.0349 -18.7014 1.5802 -2.3758 13.2803 0.6471 -1.1173 7.1808 0.0000 -0.0000 0.0000 -85.7717 11.8413 42.9286 124.9332 -54.8453 -89.7294 -0.0000 0.0000 -36.3297 25.9289 -0.2112 -0.1027 -7.1250 0.0000 -0.0000 -0.5005 29.7448 0.1863 0.0000 -0.0000 0.0000 87.7088 -28.5735 32.6408 -110.8340 58.2947 -77.9395 0.0000 -0.0000 -12.5324 -26.9465 38.2372 -17.4650 7.1250 -0.0000 -0.0000 3.9777 11.4068 4.6960
